<svg data-v-423bf9ae="" xmlns="http://www.w3.org/2000/svg" viewBox="0 0 404 106" class="iconLeftSlogan"><!----><!----><!----><g data-v-423bf9ae="" id="ed998bd5-b25c-4e0f-bc23-811fca687143" fill="white" transform="matrix(4.354136212645278,0,0,4.354136212645278,73.40375060787031,-0.4789546380690055)"><path d="M0.45 10.50L3.86 10.50L3.86 10.09C2.87 10.02 2.81 10.00 2.81 9.28L2.81 6.01C2.81 5.66 2.84 5.46 2.95 5.24C3.25 4.69 3.88 4.23 4.62 4.23C5.57 4.23 6.09 4.76 6.09 5.98L6.09 9.28C6.09 10.00 6.05 10.02 5.04 10.09L5.04 10.50L8.46 10.50L8.46 10.09C7.46 10.02 7.41 10.00 7.41 9.28L7.41 5.70C7.41 4.28 6.64 3.47 5.35 3.47C4.31 3.47 3.67 3.98 2.80 4.54L2.60 3.47L0.52 3.82L0.52 4.17L1.05 4.24C1.41 4.30 1.50 4.37 1.50 4.87L1.50 9.28C1.50 10.00 1.46 10.02 0.45 10.09ZM9.95 1.34C9.95 1.85 10.30 2.20 10.81 2.20C11.31 2.20 11.66 1.85 11.66 1.34C11.66 0.84 11.31 0.49 10.81 0.49C10.30 0.49 9.95 0.84 9.95 1.34ZM9.11 10.50L12.53 10.50L12.53 10.09C11.54 10.02 11.48 10.00 11.48 9.28L11.48 3.56L11.38 3.47L9.18 3.82L9.18 4.17L9.72 4.24C10.08 4.30 10.16 4.37 10.16 4.87L10.16 9.28C10.16 10.00 10.12 10.02 9.11 10.09ZM13.19 10.50L16.60 10.50L16.60 10.09C15.61 10.02 15.55 10.00 15.55 9.28L15.55 6.01C15.55 5.66 15.57 5.46 15.67 5.26C15.93 4.70 16.55 4.23 17.32 4.23C18.52 4.23 18.66 5.11 18.66 5.98L18.66 9.28C18.66 10.00 18.62 10.02 17.61 10.09L17.61 10.50L21.03 10.50L21.03 10.09C20.03 10.02 19.98 10.00 19.98 9.28L19.98 6.01C19.98 5.66 19.99 5.46 20.08 5.24C20.29 4.68 20.89 4.23 21.67 4.23C22.55 4.23 23.09 4.73 23.09 5.98L23.09 9.28C23.09 10.00 23.04 10.02 22.04 10.09L22.04 10.50L25.45 10.50L25.45 10.09C24.46 10.02 24.40 10.00 24.40 9.28L24.40 5.70C24.40 4.28 23.65 3.47 22.32 3.47C21.17 3.47 20.34 4.24 19.85 4.55C19.52 3.89 18.98 3.47 18.00 3.47C16.93 3.47 16.04 4.17 15.55 4.54L15.43 3.47L13.26 3.82L13.26 4.17L13.79 4.24C14.15 4.30 14.24 4.37 14.24 4.87L14.24 9.28C14.24 10.00 14.20 10.02 13.19 10.09ZM26.35 7.13C26.35 9.34 27.30 10.67 29.58 10.67C31.14 10.67 31.93 9.80 32.31 8.69L31.89 8.47C31.50 9.28 30.97 9.95 29.86 9.95C28.13 9.95 27.78 8.27 27.80 6.82L31.84 6.82C32.13 6.82 32.40 6.75 32.40 6.29C32.40 5.46 32.13 3.47 29.57 3.47C27.38 3.47 26.35 5.03 26.35 7.13ZM27.82 6.29C27.82 5.71 28.03 3.96 29.48 3.96C30.79 3.96 30.94 5.29 30.94 5.84C30.94 6.10 30.86 6.29 30.46 6.29ZM33.31 10.50L37.00 10.50L37.00 10.09C35.76 10.02 35.67 10.00 35.67 9.28L35.67 6.01C35.67 4.93 36.15 4.56 36.47 4.56C36.69 4.56 36.93 4.65 37.34 4.87C37.44 4.93 37.55 4.94 37.62 4.94C37.95 4.94 38.26 4.59 38.26 4.16C38.26 3.85 38.07 3.47 37.52 3.47C37.02 3.47 36.60 3.78 35.67 4.59L35.50 3.47L33.38 3.82L33.38 4.17L33.91 4.24C34.27 4.30 34.36 4.37 34.36 4.87L34.36 9.28C34.36 10.00 34.29 10.02 33.31 10.09ZM42.11 8.16L42.25 10.00C42.76 10.44 43.61 10.67 44.44 10.67C46.10 10.67 47.05 9.79 47.05 8.60C47.05 7.36 46.30 6.80 44.86 6.36C44.28 6.17 43.36 5.88 43.36 5.10C43.36 4.37 43.92 3.96 44.62 3.96C45.61 3.96 46.09 4.73 46.19 5.59L46.59 5.59L46.59 3.95C46.13 3.61 45.42 3.47 44.79 3.47C43.27 3.47 42.24 4.19 42.24 5.52C42.24 6.68 43.19 7.20 44.35 7.55C44.98 7.74 45.86 8.06 45.86 9.02C45.86 9.73 45.30 10.18 44.56 10.18C43.43 10.18 42.80 9.35 42.52 8.16ZM48.85 1.34C48.85 1.85 49.20 2.20 49.70 2.20C50.20 2.20 50.55 1.85 50.55 1.34C50.55 0.84 50.20 0.49 49.70 0.49C49.20 0.49 48.85 0.84 48.85 1.34ZM48.01 10.50L51.42 10.50L51.42 10.09C50.43 10.02 50.37 10.00 50.37 9.28L50.37 3.56L50.27 3.47L48.08 3.82L48.08 4.17L48.61 4.24C48.97 4.30 49.06 4.37 49.06 4.87L49.06 9.28C49.06 10.00 49.01 10.02 48.01 10.09ZM52.08 10.50L55.50 10.50L55.50 10.09C54.50 10.02 54.45 10.00 54.45 9.28L54.45 6.01C54.45 5.66 54.47 5.46 54.59 5.24C54.88 4.69 55.51 4.23 56.25 4.23C57.20 4.23 57.72 4.76 57.72 5.98L57.72 9.28C57.72 10.00 57.68 10.02 56.67 10.09L56.67 10.50L60.09 10.50L60.09 10.09C59.09 10.02 59.04 10.00 59.04 9.28L59.04 5.70C59.04 4.28 58.27 3.47 56.98 3.47C55.94 3.47 55.30 3.98 54.43 4.54L54.24 3.47L52.15 3.82L52.15 4.17L52.68 4.24C53.05 4.30 53.13 4.37 53.13 4.87L53.13 9.28C53.13 10.00 53.09 10.02 52.08 10.09ZM60.89 11.84C60.89 13.26 62.29 13.89 63.91 13.89C64.75 13.89 65.63 13.72 66.30 13.31C66.95 12.92 67.41 12.26 67.41 11.40C67.41 9.88 66.21 9.35 64.71 9.35L63.59 9.35C62.58 9.35 62.43 9.02 62.43 8.75C62.43 8.34 62.96 8.12 63.14 8.06C63.41 8.09 63.70 8.11 63.85 8.11C65.18 8.11 66.68 7.52 66.68 5.82C66.68 5.24 66.50 4.75 66.26 4.51L67.37 4.34L67.65 3.46L67.54 3.33L65.74 3.91C65.35 3.64 64.58 3.47 63.94 3.47C61.80 3.47 61.04 4.79 61.04 5.82C61.04 7.14 61.91 7.74 62.55 7.91L62.55 7.94C61.80 8.23 61.26 8.64 61.26 9.18C61.26 9.67 61.82 10.21 62.50 10.28L62.50 10.30C61.89 10.50 60.89 10.84 60.89 11.84ZM62.22 11.77C62.22 11.30 62.36 10.95 62.65 10.72C62.96 10.49 63.42 10.40 64.09 10.40C65.32 10.40 66.23 10.70 66.23 11.75C66.23 12.87 65.23 13.40 64.23 13.40C63.04 13.40 62.22 12.78 62.22 11.77ZM62.47 5.82C62.47 4.44 63.20 3.96 63.94 3.96C64.62 3.96 65.34 4.47 65.34 5.82C65.34 7 64.72 7.62 63.91 7.62C63.13 7.62 62.47 7 62.47 5.82ZM67.87 10.50L71.27 10.50L71.27 10.09C70.31 10.02 70.22 9.97 70.22 9.28L70.22 6.01C70.22 5.66 70.24 5.46 70.35 5.25C70.64 4.69 71.29 4.23 72.03 4.23C72.98 4.23 73.50 4.76 73.50 5.98L73.50 9.28C73.50 9.97 73.43 10.02 72.45 10.09L72.45 10.50L75.87 10.50L75.87 10.09C74.90 10.02 74.82 9.97 74.82 9.28L74.82 5.70C74.82 4.28 74.05 3.47 72.74 3.47C71.72 3.47 71.09 3.95 70.21 4.54L70.21 0.20L70.11 0.11L67.93 0.46L67.93 0.81L68.46 0.88C68.82 0.94 68.91 1.01 68.91 1.51L68.91 9.28C68.91 9.97 68.85 10.02 67.87 10.09Z"></path></g><!----><g data-v-423bf9ae="" id="65f3baf0-c451-45fe-8e0a-984e96b3ecf6" transform="matrix(1.0846221076117621,0,0,1.0846221076117621,-26.78858889215884,-1.0406229878464544)" stroke="none" fill="white"><path d="M40.086 33.5c.561-.43 1.396-.708 2.34-.795a1.357 1.357 0 001.328 1.628c.744 0 1.35-.605 1.352-1.351.525.168.992.399 1.346.681a.455.455 0 00.281.099.457.457 0 00.355-.174.45.45 0 00-.074-.636c-.629-.5-1.5-.86-2.471-1.045a.47.47 0 00-.183-.031 8.17 8.17 0 00-.936-.099c-1.527-.068-2.982.309-3.892 1.004a.454.454 0 00.554.719zm3.334-.816c.242.012.483.039.721.075a.446.446 0 11-.834.22.435.435 0 01.113-.295zm10.107 7.306a.457.457 0 01-.633.111c-.537-.373-.814-.817-.803-1.285a11.55 11.55 0 00-.197-2.356 6.62 6.62 0 001.078 1.312c.025.343.033.701.027 1.068-.004.14.149.334.414.518a.45.45 0 01.114.632zm-4.382-3.409a11.307 11.307 0 00-.176 2.236c.01.467-.268.912-.807 1.285a.445.445 0 01-.629-.111.45.45 0 01.112-.632c.263-.183.418-.377.416-.518-.01-.349 0-.686.021-1.013a6.707 6.707 0 001.063-1.247zm5.435-2.919c.354-.281.82-.512 1.349-.681a1.353 1.353 0 102.677-.277c.945.087 1.779.366 2.344.795a.451.451 0 10.547-.719c-.905-.695-2.36-1.072-3.885-1.004-.32.014-.631.048-.938.099a.458.458 0 00-.18.031c-.976.186-1.847.546-2.476 1.045a.455.455 0 00.281.81.453.453 0 00.281-.099zm2.311-.903c.236-.036.479-.062.725-.075a.446.446 0 11-.725.075zm-14.328 2.677l-1.662-.354c-.592-.126-.404-1.014.186-.889l1.664.354c.593.125.402 1.014-.188.889zm-5.998-3.338c.33.245.406.582.465 1.016.084.626.125 1.258.264 1.873.545 2.465 2.382 3.498 4.836 3.737 4.363.427 6.265-1.956 6.949-3.749.162-.423.281-.793.39-1.108.196-.571.323-1.206 1.091-1.207.449.001.627.143.797.468.308.584.451 1.234.685 1.848.686 1.794 2.584 4.176 6.948 3.747 2.306-.227 3.548-1.115 4.216-2.172.573-.906.686-1.83.813-2.849.062-.53.053-1.246.531-1.603.315-.276.508-.538.508-.889v-1.631a.736.736 0 00-.332-.604c-.642-.372-2.656-.839-5.627-.731a18.586 18.586 0 00-4.299.659c-1.097.304-1.861.629-2.259.768-.707.248-1.883.248-1.983.246-.104.002-1.277.002-1.981-.246-.4-.139-1.158-.462-2.259-.768a18.671 18.671 0 00-4.299-.657c-2.974-.11-4.99.358-5.627.73a.743.743 0 00-.332.605v1.628c-.001.351.192.615.505.889zm16.123-.011c.006-.519.141-.908.41-1.221.631-.711 2.109-1.104 4.951-1.311.424-.029.77-.044 1.086-.044 1.371 0 2.262.28 2.881.906.646.649.955 1.659.947 3.088-.023 2.792-1.854 4.525-4.771 4.525-1.678 0-3.018-.502-3.986-1.49-1.034-1.055-1.56-2.595-1.518-4.453zm-13.584-1.67c.623-.627 1.51-.906 2.879-.906.316 0 .662.016 1.086.044 2.842.208 4.32.598 4.951 1.309.551.625.436 1.589.344 2.362-.018.14-.033.273-.045.395-.188 2.125-1.953 4.41-5.389 4.41-2.924 0-4.752-1.733-4.771-4.525-.01-1.429.3-2.439.945-3.089zm12.63-1.381a8.336 8.336 0 01-.906.076V27.92a.454.454 0 01.906 0v1.116zm-12.194 2.37c-.09.057-.164.101-.244.128.104-.216.227-.402.377-.554.309-.311.85-.668 2.311-.668.297 0 .627.013 1.029.042.393.029 1.129.082 1.896.195.145.055.284.112.43.174.758.324 1.389.489 1.871.494.082.056.151.114.211.177.143.163.199.415.213.695-.125.02-.258.035-.408.035-.611 0-1.363-.191-2.242-.568-1.32-.563-2.598-.854-3.57-.801-.939.052-1.593.472-1.874.651zm9.302-2.49a.03.03 0 00-.01-.003v-.284a.453.453 0 11.905 0v.45c-.324-.029-.658-.08-.895-.163zm7.209 2.64c-.881.377-1.635.568-2.242.568-.119 0-.223-.01-.322-.022.008-.414.113-.592.213-.705.058-.065.133-.126.219-.185.472-.022 1.066-.186 1.773-.489.129-.054.252-.104.379-.153.816-.126 1.621-.185 2.037-.216.402-.029.73-.042 1.027-.042 1.463 0 2.006.358 2.314.668.155.155.28.349.385.574-.125-.013-.22-.069-.342-.147-.281-.18-.937-.599-1.871-.651-.973-.054-2.25.235-3.57.8zm-.41 5.002c1.299 0 2.553.199 3.666.562a5.457 5.457 0 01-1.115.112c-1.062 0-1.959-.227-2.682-.671.045 0 .086-.003.131-.003zm4.236-1.476l-1.664.354c-.588.125-.779-.763-.187-.889l1.66-.354c.597-.125.783.763.191.889zM63.6 7.835C58.744 3.376 54.434 1.21 50.42 1.21c-3.959 0-8.392 2.228-13.178 6.625-8.572 7.873-12.718 15.848-12.316 23.71.467 9.205 7.018 15.084 8.592 16.37-.158 6.617-.047 12.229.297 15.452.01.087.031.172.059.259a1.26 1.26 0 001.611.89c-.035 4.002.01 7.727.133 11.121-.014.187.017.377.084.551.185.49.652.817 1.172.817l.047-.001a1.245 1.245 0 001.199-1.129c.017-.059.031-.117.047-.178.164 3.82.359 7.201.595 10.229.053.65.6 1.157 1.25 1.157.032 0 .062-.002.098-.004a1.31 1.31 0 00.523-.16c.396-.175.672-.538.733-.97.152-1.085.31-2.267.471-3.538.627 3.031 1.375 5.9 2.203 8.471a1.254 1.254 0 001.25 1.153c.023 0 .045 0 .054-.002.336-.013.645-.156.868-.402.228-.246.345-.565.332-.899a372.678 372.678 0 01-.186-5.445 37.35 37.35 0 002.309 4.799c.017.025.031.049.05.072.172 1.227.358 2.455.555 3.652a1.258 1.258 0 001.24 1.442c.563 0 1.061-.381 1.209-.925.274-1.014.537-2.352.78-3.986.062 2.447.091 4.864.086 7.229a1.257 1.257 0 001.25 1.256h.003c.653 0 1.194-.509 1.247-1.153.669-2.136 1.232-4.462 1.685-6.943.135.047.274.07.424.07.043 0 .091-.001.144-.006a1.257 1.257 0 001.086-1.005c.002-.006.002-.01.006-.017a39.101 39.101 0 001.092-4.322 1.244 1.244 0 002.029-.758c.002-.01.111-.694.275-1.82.146.061.311.093.479.093a1.255 1.255 0 001.229-1.103c.017-.107.246-2.031.443-4.643a1.285 1.285 0 00.383-.011 1.25 1.25 0 00.963-.853c.051-.127.08-.258.09-.396.168-2.802.224-7.108.156-11.167a1.24 1.24 0 00.998-.977.89.89 0 00.041-.148c.949-4.748 1.273-10.479.895-15.776.095-.117.189-.242.283-.369 2.359-2.058 7.705-7.608 8.129-15.981.397-7.857-3.749-15.834-12.317-23.706zm10.611 23.613c-.295 5.819-3.324 10.276-5.625 12.852.225-.562.426-1.161.606-1.781l.158-.231c5.594-7.377 8.328-19.173-10.248-33.554.494-.568.918-1.062 1.246-1.448a39.898 39.898 0 012.092 1.806c8.179 7.508 12.138 15.029 11.771 22.356zm-10.16 10.358c0-.038.004-.117.006-.215a48.42 48.42 0 00.449-1.996c.139.631.35 1.694.356 1.729 1.234 5.575 1.421 12.792.556 19.123-.584-4.778-1.504-12.897-1.367-18.641zm-.192 29.774a130.692 130.692 0 01-.439-3.286 2.662 2.662 0 00-.008-.126c-.002-.041-.012-.081-.021-.12-.551-4.58-.922-9.549-1.106-14.769a156.7 156.7 0 001.436 6.543c-.006.037-.014.074-.01.117.166 3.42.217 7.883.148 11.641zm-10.683 1.054c.203-4.466.33-9.325.373-14.358.008-1.112.018-1.935.027-2.614.018-1.353.026-2.183.006-3.713.246.163.504.293.768.396a637.45 637.45 0 00.824 18.158.412.412 0 00.008.172c.266 4.382.566 8.515.895 12.261a.486.486 0 00-.016.094c-.326 3.974-.936 7.781-1.785 11.195a278.77 278.77 0 00-.264-9.561 233.622 233.622 0 00-.832-12.007c0-.009-.002-.014-.004-.023zm-.506-16.986c-.008.685-.021 1.502-.029 2.617-.113 13.99-.902 26.605-2.029 33.08-.968-6.449-1.664-13.423-2.058-20.771-.062-1.177-.121-2.31-.172-3.411a.105.105 0 00.014-.041c.873-3.061 1.785-13.328 1.975-18.743.416-.038.826-.09 1.227-.153.098 1.228.5 2.182 1.071 2.888 0 .018-.004.035-.004.052.034 2.063.023 2.921.005 4.482zm-7.224 19.941l-.021-.069v-.438c0-7.366.231-14.229.752-22.248l.018-.277c.394-.058.783-.16 1.146-.339-.211 6.613-.047 11.808.311 18.408.312 5.828.812 11.424 1.492 16.715-1.727-3.493-2.995-7.509-3.698-11.752zm-.176-22.814a378.578 378.578 0 00-.486 9.156c-.951-2.643-1.955-6.951-2.209-10.166.729.519 1.5.825 2.314.85.107.003.215.005.326.005l.065-.001-.01.156zm-8.57-2.974a225.39 225.39 0 01-1.43 9.858c-.146-3.275-.154-7.597-.027-12.445.017-.271.447-6.663.885-9.598.146 1.234.478 2.812.97 4.481-.002.022-.002.04-.002.064-.006.293-.025.551-.033.8-.006.233-.014.468-.031.736a428.323 428.323 0 00-.323 6.09c-.005.006-.009.01-.009.014zM34.143 46.2a22.582 22.582 0 01-1.426-1.39c-.117-.305-.863-2.62.566-8.859a19.046 19.046 0 011.975-5.146v-1.224c0-.503.266-.991.693-1.273l.018-.011.02-.011c.264-.153.693-.317 1.281-.461 1.668-2.104 3.648-3.942 5.686-5.83.396-.366.791-.735 1.189-1.109 3.969-3.72 11.72-12.254 14.246-15.052.408.278.822.577 1.242.896-1.494 1.76-4.889 5.659-8.408 8.991-1.257 1.194-2.574 2.365-3.849 3.497-3.543 3.152-6.623 5.89-7.607 8.255.32-.02.662-.033 1.021-.04 1.09-2.114 4.059-4.755 7.19-7.538.447-.399.904-.805 1.359-1.213a.63.63 0 00.073.015c2.719.275 5.309 1.166 7.393 1.88a.43.43 0 00.082.021c1.114 1.164 2.059 2.459 2.379 3.734a20.86 20.86 0 001.031 3.101c.352.005.688.019 1.01.038-.396-.855-.795-1.913-1.16-3.358-.785-3.106-4.625-6.14-6.694-7.583 5.368.206 9.975 5.13 12.084 12.133.2.263.317.587.317.92v.229c.586 2.304.908 4.809.908 7.425 0 2.082-.203 4.116-.601 6.072-.049-.286-.864-4.394-1.66-7.758a5.157 5.157 0 01-.623 1.432 4.92 4.92 0 01-1.875 1.717c-1.518 1.433-1.674 2.055-1.87 3.441l-.015.089a.457.457 0 00.385.513c.025.002.046.005.066.005a.457.457 0 00.449-.39l.012-.089c.199-1.4.252-1.779 2.543-3.757.045-.036.144-.115.269-.251-.58 3.121-1.613 7.25-3.334 10.109a9.904 9.904 0 00-.726-.993 18.72 18.72 0 00-3.281-3.13c-1.381-1.012-2.789-1.72-3.877-1.967.146-.046.283-.077.396-.077h.475c.502 0 .67-.388.357-.777-.092-.119-.553-.474-1.119-.35a1.217 1.217 0 00-.533.241 4.552 4.552 0 00-.186.151 1.31 1.31 0 01-.357.23 2.162 2.162 0 01-.521.136 4.553 4.553 0 01-1.16 0 2.155 2.155 0 01-.519-.136 1.222 1.222 0 01-.358-.23s-.147-.124-.187-.151a1.2 1.2 0 00-.535-.241c-.563-.124-1.024.23-1.118.35-.314.39-.14.777.358.777h.289a9.67 9.67 0 00-.93.377.493.493 0 00-.109.052A14.41 14.41 0 0044.623 44a21.062 21.062 0 00-3.34 3.087c-.299.354-.537.663-.725.938-1.637-2.739-2.883-6.489-3.381-9.425 2.186 1.9 2.244 2.29 2.439 3.668l.014.089c.031.225.227.39.447.39.021 0 .043-.003.062-.005a.454.454 0 00.387-.513l-.014-.089c-.232-1.643-.41-2.211-2.859-4.326-.014-.011-.024-.02-.036-.028-.005-.004-.354-.27-.668-.962a.29.29 0 00-.048-.104 5.839 5.839 0 01-.377-1.462.554.554 0 00-.014-.055l.004-.005c-.004-.012-.006-.024-.008-.036-.105-.467-.158-.93-.207-1.376l-.033-.268c-1.336 2.898-2.894 7.238-2.123 12.682zM50.42 2.916h.002a10.2 10.2 0 012.147.234 41.562 41.562 0 00-5.938 3.485c-.008.001-.017.001-.021.004-9.002 2.531-16.393 10.348-19.695 20.479 1.064-5.945 4.908-11.99 11.48-18.026 4.463-4.099 8.508-6.176 12.025-6.176zM31.559 43.492c-1.232-1.5-2.562-3.478-3.533-5.864 2.271-7.166 6.207-13.869 11.391-19.385A51.371 51.371 0 0156.94 6.089c-3.07 3.39-9.816 10.764-13.417 14.134-.396.374-.793.741-1.186 1.106-4.332 4.021-8.428 7.82-9.938 14.42-.885 3.861-.965 6.301-.84 7.743zm7.195-25.868a52.021 52.021 0 00-10.033 15.48c2.033-6.111 5.043-11.789 8.826-16.58 4.488-5.689 10.074-10.151 16.147-12.902a.43.43 0 00.154-.117c1.062.351 2.149.858 3.278 1.528a52.314 52.314 0 00-18.372 12.591zM44.297 8.4a47.402 47.402 0 00-7.461 7.562c-4.306 5.448-7.627 12.016-9.664 19.07a18.589 18.589 0 01-.523-3.291C28.772 20.862 35.561 11.994 44.297 8.4zm21.844 12.297c-2.324-4.134-5.514-7.573-9.021-9.738.496-.543.959-1.062 1.385-1.542 8.294 6.412 12.982 12.834 13.929 19.094.603 3.963-.295 7.857-2.668 11.6.252-1.37.394-2.778.394-4.126a31.349 31.349 0 00-4.019-15.288zM51.74 16.479a32.077 32.077 0 013.58 2.641c-1.549-.501-3.279-.988-5.095-1.239.507-.462 1.017-.929 1.515-1.402zm-3.146 31.078c-.518 0-1.029-.024-1.533-.065.027-.021.061-.041.084-.062.416-.304.807-.622 1.17-.943.26.01.525.018.783.018 1.115 0 2.193-.1 3.169-.292.254.255.529.508.822.756-1.329.38-2.891.588-4.495.588zm.869.883c-.152 4.244-.666 10.373-1.236 14.557a175.52 175.52 0 01.043-11.504c.594-.694.91-1.692.955-3.042l.238-.011zm-4.759 15.599c-.02.686-.045 1.368-.062 2.05-.558-.677-1.123-1.585-1.66-2.653a.42.42 0 00-.103-.201c-2.075-4.217-3.76-10.762-3.452-15.376.205.377.42.742.643 1.093-.188.525-.071.82.068 1.013.178.244.469.366.864.366.021 0 .043-.003.062-.005.185.223.373.43.563.623a.714.714 0 00-.006.093c.165 3.919 1.739 10.546 3.083 12.997zm0 23.065c-1.155-4.277-2.069-9.119-2.623-13.97.263-2.541.521-5.239.777-8.051.574.967 1.17 1.754 1.752 2.289a321.7 321.7 0 00-.09 7.71c0 4.063.061 8.091.184 12.022zm-3.561-38.318c.607-.982 2.178-2.707 4.02-4.058.229-.167.451-.32.668-.463a18.463 18.463 0 01-1.828 2.333c-.87.932-1.864 1.685-2.86 2.188zm3.524-1.569a20.054 20.054 0 002.766-3.845c.783-.361 1.43-.532 1.844-.532.234 0 .357.052.391.101.062.083.086.479-.518 1.313-.566.792-1.469 1.66-2.539 2.444-1.271.934-2.809 1.791-4.01 2.286a12.13 12.13 0 002.066-1.767zm5.222-2.435c.365-.509.561-.93.652-1.273.047.384.244.883.703 1.521.09.127.192.257.299.388-.734.113-1.516.172-2.324.178.25-.275.477-.547.67-.814zm2.091-.281c-.602-.836-.576-1.232-.516-1.314l.002-.001c.793.997 2.063 2.015 3.57 2.85a24.717 24.717 0 003.887 1.714c.764.911 1.219 1.677 1.207 1.975a.749.749 0 01-.103.006c-.926 0-3.444-1.274-5.508-2.785-1.068-.787-1.97-1.654-2.539-2.445zm.764-1.254c.834.253 1.978.813 3.224 1.728a16.7 16.7 0 011.489 1.237 22.898 22.898 0 01-1.979-.969c-1.07-.593-2.025-1.294-2.734-1.996zm-14.853 1.229c.246.645.51 1.286.795 1.906-.002.013-.008.024-.01.035-.428 2.552-.123 5.856.607 9.117-.347 6.329-1.037 11.932-2.056 16.713-.158-8.078.074-17.768.664-27.771zm1.596 19.438c.211-1.791.389-3.659.531-5.602.582 1.939 1.291 3.774 2.059 5.323-.61 6.905-1.264 13.199-1.887 18.197-.303-4.938-.521-10.714-.682-17.81a.376.376 0 00-.021-.108zm5.428-12.206c-.979-.024-1.93-.624-2.817-1.584 1.104-.338 2.532-1.06 3.805-1.854a.407.407 0 00.058.014c.764.108 1.553.163 2.358.175-.051 1.202-.334 2.074-.856 2.584-.652.629-1.611.689-2.548.665zm7.579-3.655c.513-.113 1-.249 1.457-.403.013.009.021.018.033.026 1.506 1.104 3.494 2.258 4.926 2.732-.949.888-2.051 1.389-3.324 1.3-1.451-.103-2.941-1.275-3.092-3.655zm4.178 10.256c0 3.15-.271 6.248-.773 9.002a647.72 647.72 0 01-.635-14.726c.09.01.172.022.26.03a4.76 4.76 0 00.847-.013c.197 1.841.301 3.761.301 5.707zm.906 0c0-2.008-.106-3.984-.313-5.884.641-.19 1.303-.53 1.959-1.073.017 1.054.031 2.438.031 3.274 0 5.565-.384 10.866-1.06 15.237a.776.776 0 00-.014.08c-.441 2.832-1.004 5.27-1.664 7.133a490.01 490.01 0 01-.432-6.498c.962-3.471 1.493-7.822 1.493-12.269zm-.889 20.73c.689-1.425 1.297-3.403 1.805-5.788.058.55.113 1.099.174 1.651a.446.446 0 00-.028.162c.104 4.268-.326 8.4-1.248 12.093a329.093 329.093 0 01-.724-8.084c.008-.012.018-.023.021-.034zm3.204-16.435c.406 5.052.783 9.232 1.148 12.666a167.933 167.933 0 01-.707 5.938 288.93 288.93 0 01-1.246-11.229c.35-2.25.617-4.738.805-7.375zm.269-8.35a190.457 190.457 0 00-.049-3.62c.42-.021.644-.202.758-.356.17-.234.207-.541.103-.92.103-.147.194-.302.297-.461.101 6.94.522 13.526 1.244 19.462.135 3.059-.072 6.671-.289 9.357-.626-5.353-1.298-12.969-2.064-23.462zm2.012-7.005l-.012-.04c.346-.736.676-1.569.991-2.503.109 4.337.604 9.335 1.052 13.228-.726-3.154-1.478-6.813-2.031-10.685zm4.385-.947c-.018-.193-.039-.388-.059-.578a.592.592 0 00.03-.081c.757-2.663 1.14-5.491 1.14-8.41 0-11.921-6.533-21.62-14.564-21.62-.158 0-.314.004-.473.013a107.744 107.744 0 003.861-3.986c3.438 2.079 6.573 5.439 8.854 9.5a30.414 30.414 0 013.901 14.844c.003 3.776-1.13 8.018-2.69 10.318z"></path></g><!----><g data-v-423bf9ae="" id="4adee7a6-8d56-45a7-8a9c-340e6a13bffc" fill="white" transform="matrix(0.6930596328170074,0,0,0.6930596328170074,75.16905357102846,57.71290404401685)"><path d="M0.28 3.71L0.28 3.71Q0.28 3.50 0.67 3.50L0.67 3.50Q0.81 3.50 1.32 3.53Q1.82 3.56 2.25 3.56L2.25 3.56Q2.52 3.56 2.77 3.54Q3.01 3.53 3.49 3.53L3.49 3.53Q3.86 3.53 3.86 3.72L3.86 3.72Q3.86 3.84 3.22 4.10L3.22 4.10Q2.77 4.28 2.77 5.71L2.77 5.71Q2.77 7.60 2.75 9.05Q2.73 10.50 2.73 10.89L2.73 10.89Q2.73 12.07 3.08 12.59L3.08 12.59Q3.39 13.02 3.75 13.02L3.75 13.02Q3.78 13.02 3.89 13.03Q4.00 13.03 4.03 13.03L4.03 13.03Q4.13 13.03 4.23 13.08Q4.33 13.13 4.33 13.19L4.33 13.19Q4.33 13.34 4.25 13.39Q4.17 13.44 3.98 13.44L3.98 13.44Q3.56 13.44 3.20 13.41Q2.84 13.38 2.65 13.38L2.65 13.38Q2.25 13.38 1.79 13.42Q1.33 13.45 1.11 13.45L1.11 13.45Q0.48 13.45 0.48 13.24L0.48 13.24Q0.48 13.12 0.61 13.07Q0.74 13.02 0.91 13.00Q1.08 12.98 1.26 12.82Q1.44 12.66 1.51 12.35L1.51 12.35Q1.54 12.25 1.60 10.76Q1.67 9.27 1.67 8.61L1.67 8.61L1.67 7.81Q1.67 7.63 1.67 7.12Q1.68 6.61 1.68 6.30L1.68 6.30L1.68 5.66Q1.68 5.04 1.62 4.63L1.62 4.63Q1.58 4.30 1.25 4.12Q0.92 3.93 0.57 3.92L0.57 3.92Q0.28 3.91 0.28 3.71ZM11.87 3.71L11.87 3.71Q11.87 3.46 12.25 3.46L12.25 3.46Q12.31 3.46 12.43 3.47Q12.56 3.49 12.63 3.49L12.63 3.49Q12.77 3.49 13.15 3.51Q13.54 3.54 13.85 3.54L13.85 3.54Q14.28 3.54 14.77 3.51Q15.26 3.49 15.32 3.49L15.32 3.49Q15.55 3.49 15.55 3.63L15.55 3.63Q15.55 3.82 15.39 3.88Q15.22 3.95 15.02 3.97Q14.81 3.99 14.62 4.28Q14.43 4.56 14.41 5.14L14.41 5.14Q14.38 5.68 14.34 8.19Q14.29 10.70 14.29 10.99L14.29 10.99L14.29 11.55Q14.29 12.56 14.63 12.66L14.63 12.66Q14.98 12.77 15.23 12.77L15.23 12.77Q16.28 12.77 17.07 12.67Q17.86 12.57 18.26 12.42Q18.66 12.28 18.93 12.10Q19.19 11.93 19.27 11.78Q19.35 11.63 19.43 11.54Q19.50 11.44 19.59 11.44L19.59 11.44Q19.75 11.44 19.75 11.68L19.75 11.68Q19.75 12.28 19.15 12.89Q18.55 13.51 18.10 13.51L18.10 13.51Q17.09 13.51 15.83 13.44Q14.56 13.37 14.25 13.37L14.25 13.37Q13.86 13.37 13.35 13.43Q12.84 13.48 12.50 13.48L12.50 13.48Q12.10 13.48 12.10 13.31L12.10 13.31Q12.10 13.22 12.17 13.15Q12.25 13.09 12.32 13.09L12.32 13.09Q12.53 13.09 12.73 12.95L12.73 12.95Q12.98 12.75 13.09 12.23Q13.20 11.70 13.20 10.21L13.20 10.21L13.20 8.47Q13.20 8.09 13.22 7.29Q13.24 6.50 13.24 6.05L13.24 6.05Q13.24 5.67 13.22 4.77L13.22 4.77Q13.20 4.37 12.87 4.14Q12.53 3.92 12.08 3.91L12.08 3.91Q11.94 3.91 11.91 3.86Q11.87 3.81 11.87 3.71ZM27.31 3.71L27.31 3.71Q27.31 3.46 27.69 3.46L27.69 3.46Q27.75 3.46 27.87 3.47Q28 3.49 28.07 3.49L28.07 3.49Q28.21 3.49 28.59 3.51Q28.98 3.54 29.29 3.54L29.29 3.54Q29.72 3.54 30.21 3.51Q30.70 3.49 30.76 3.49L30.76 3.49Q31.00 3.49 31.00 3.63L31.00 3.63Q31.00 3.82 30.83 3.88Q30.66 3.95 30.46 3.97Q30.25 3.99 30.06 4.28Q29.88 4.56 29.85 5.14L29.85 5.14Q29.82 5.68 29.78 8.19Q29.74 10.70 29.74 10.99L29.74 10.99L29.74 11.55Q29.74 12.56 30.07 12.66L30.07 12.66Q30.42 12.77 30.67 12.77L30.67 12.77Q31.72 12.77 32.52 12.67Q33.31 12.57 33.70 12.42Q34.10 12.28 34.37 12.10Q34.64 11.93 34.71 11.78Q34.79 11.63 34.87 11.54Q34.94 11.44 35.03 11.44L35.03 11.44Q35.20 11.44 35.20 11.68L35.20 11.68Q35.20 12.28 34.59 12.89Q33.99 13.51 33.54 13.51L33.54 13.51Q32.54 13.51 31.27 13.44Q30.00 13.37 29.69 13.37L29.69 13.37Q29.30 13.37 28.79 13.43Q28.28 13.48 27.94 13.48L27.94 13.48Q27.54 13.48 27.54 13.31L27.54 13.31Q27.54 13.22 27.61 13.15Q27.69 13.09 27.76 13.09L27.76 13.09Q27.97 13.09 28.17 12.95L28.17 12.95Q28.42 12.75 28.53 12.23Q28.64 11.70 28.64 10.21L28.64 10.21L28.64 8.47Q28.64 8.09 28.66 7.29Q28.69 6.50 28.69 6.05L28.69 6.05Q28.69 5.67 28.66 4.77L28.66 4.77Q28.64 4.37 28.31 4.14Q27.97 3.92 27.52 3.91L27.52 3.91Q27.38 3.91 27.35 3.86Q27.31 3.81 27.31 3.71ZM43.09 8.69L43.09 8.69Q43.09 6.34 44.51 4.84Q45.92 3.33 48.51 3.33L48.51 3.33Q49.71 3.33 50.68 3.68Q51.65 4.03 52.21 4.54Q52.77 5.05 53.14 5.71Q53.52 6.37 53.66 6.92Q53.80 7.48 53.80 7.95L53.80 7.95Q53.80 9.86 53.06 11.16Q52.32 12.47 51.11 13.07Q49.90 13.66 48.31 13.66L48.31 13.66Q46.65 13.66 45.44 12.94Q44.23 12.21 43.66 11.10Q43.09 10.00 43.09 8.69ZM44.32 7.98L44.32 7.98Q44.32 8.54 44.48 9.19Q44.63 9.84 44.98 10.54Q45.33 11.23 45.83 11.78Q46.33 12.33 47.09 12.69Q47.85 13.05 48.76 13.05L48.76 13.05Q49.24 13.05 49.76 12.90Q50.29 12.75 50.81 12.45Q51.32 12.14 51.73 11.70Q52.14 11.26 52.39 10.62Q52.65 9.98 52.65 9.24L52.65 9.24Q52.65 6.71 51.32 5.30Q49.99 3.89 48.03 3.89L48.03 3.89Q46.49 3.89 45.41 4.93Q44.32 5.96 44.32 7.98ZM62.03 8.83L62.03 8.83Q62.03 7.31 62.64 6.09Q63.25 4.87 64.51 4.12Q65.77 3.37 67.51 3.37L67.51 3.37Q68.18 3.37 68.77 3.48Q69.36 3.58 69.73 3.72Q70.11 3.86 70.39 4.01Q70.67 4.16 70.82 4.26Q70.97 4.37 70.99 4.37L70.99 4.37Q71.04 4.37 71.18 4.26Q71.33 4.16 71.39 4.16L71.39 4.16Q71.60 4.16 71.60 4.44L71.60 4.44Q71.61 4.84 71.66 5.29Q71.71 5.74 71.75 6.03Q71.79 6.33 71.79 6.38L71.79 6.38Q71.79 6.62 71.62 6.62Q71.46 6.62 71.39 6.45L71.39 6.45Q70.90 5.39 69.75 4.65Q68.60 3.92 67.38 3.92L67.38 3.92Q65.63 3.92 64.49 5.02Q63.35 6.12 63.35 8.06L63.35 8.06Q63.35 9.35 63.83 10.49Q64.30 11.62 65.28 12.36Q66.25 13.10 67.51 13.10L67.51 13.10Q68.59 13.10 69.46 12.61Q70.34 12.12 70.43 11.49L70.43 11.49Q70.48 11.16 70.48 9.73L70.48 9.73Q70.48 9.18 70.24 8.95L70.24 8.95Q70.07 8.78 69.62 8.72L69.62 8.72Q69.20 8.68 69.13 8.55L69.13 8.55Q69.10 8.50 69.10 8.41L69.10 8.41Q69.10 8.26 69.36 8.26L69.36 8.26Q69.54 8.26 70.14 8.29Q70.74 8.33 70.91 8.33L70.91 8.33Q71.19 8.33 71.51 8.32Q71.83 8.32 72.03 8.32L72.03 8.32L72.24 8.32Q72.46 8.32 72.46 8.44L72.46 8.44Q72.46 8.54 72.11 8.69Q71.75 8.85 71.71 9.09L71.71 9.09Q71.61 9.69 71.61 10.65L71.61 10.65Q71.61 11.07 71.62 11.40Q71.64 11.72 71.64 11.85Q71.65 11.98 71.67 12.08Q71.68 12.18 71.68 12.22L71.68 12.22Q71.68 12.29 71.58 12.33Q71.47 12.36 71.23 12.42Q70.99 12.49 70.80 12.60L70.80 12.60L70.70 12.66Q70.60 12.73 70.50 12.78Q70.41 12.84 70.25 12.92Q70.08 13.01 69.92 13.09Q69.75 13.17 69.54 13.26Q69.33 13.36 69.10 13.43Q68.88 13.50 68.64 13.55Q68.40 13.61 68.14 13.64Q67.89 13.68 67.63 13.68L67.63 13.68Q66.11 13.68 64.98 13.26Q63.85 12.85 63.24 12.14Q62.62 11.44 62.33 10.61Q62.03 9.79 62.03 8.83ZM80.15 3.71L80.15 3.71Q80.15 3.50 80.54 3.50L80.54 3.50Q80.68 3.50 81.19 3.53Q81.69 3.56 82.12 3.56L82.12 3.56Q82.39 3.56 82.64 3.54Q82.88 3.53 83.36 3.53L83.36 3.53Q83.73 3.53 83.73 3.72L83.73 3.72Q83.73 3.84 83.09 4.10L83.09 4.10Q82.64 4.28 82.64 5.71L82.64 5.71Q82.64 7.60 82.62 9.05Q82.60 10.50 82.60 10.89L82.60 10.89Q82.60 12.07 82.95 12.59L82.95 12.59Q83.26 13.02 83.62 13.02L83.62 13.02Q83.65 13.02 83.76 13.03Q83.87 13.03 83.90 13.03L83.90 13.03Q84 13.03 84.10 13.08Q84.20 13.13 84.20 13.19L84.20 13.19Q84.20 13.34 84.12 13.39Q84.04 13.44 83.85 13.44L83.85 13.44Q83.43 13.44 83.07 13.41Q82.71 13.38 82.52 13.38L82.52 13.38Q82.12 13.38 81.66 13.42Q81.20 13.45 80.98 13.45L80.98 13.45Q80.35 13.45 80.35 13.24L80.35 13.24Q80.35 13.12 80.48 13.07Q80.61 13.02 80.78 13.00Q80.95 12.98 81.13 12.82Q81.31 12.66 81.38 12.35L81.38 12.35Q81.41 12.25 81.47 10.76Q81.54 9.27 81.54 8.61L81.54 8.61L81.54 7.81Q81.54 7.63 81.54 7.12Q81.55 6.61 81.55 6.30L81.55 6.30L81.55 5.66Q81.55 5.04 81.49 4.63L81.49 4.63Q81.45 4.30 81.12 4.12Q80.79 3.93 80.44 3.92L80.44 3.92Q80.15 3.91 80.15 3.71ZM92.08 8.90L92.08 8.90Q92.08 7.38 92.67 6.16Q93.25 4.94 94.48 4.19Q95.70 3.44 97.38 3.44L97.38 3.44Q98.24 3.44 99.11 3.70Q99.97 3.95 100.49 4.20L100.49 4.20L101.01 4.47Q101.05 4.47 101.15 4.40Q101.25 4.33 101.30 4.33L101.30 4.33Q101.37 4.33 101.44 4.38Q101.51 4.44 101.51 4.55L101.51 4.55Q101.53 4.96 101.58 5.41Q101.63 5.87 101.67 6.16Q101.71 6.45 101.71 6.51L101.71 6.51Q101.71 6.76 101.54 6.76L101.54 6.76Q101.42 6.76 101.30 6.57L101.30 6.57Q99.95 4.02 97.38 4.02L97.38 4.02Q95.63 4.02 94.51 5.14Q93.39 6.26 93.39 8.06L93.39 8.06Q93.39 9.06 93.65 9.93Q93.91 10.79 94.44 11.51Q94.96 12.24 95.89 12.66Q96.81 13.08 98.04 13.08L98.04 13.08Q100.06 13.08 101.43 10.98L101.43 10.98Q101.49 10.88 101.64 10.88L101.64 10.88Q101.77 10.88 101.77 11.07L101.77 11.07Q101.77 11.23 101.72 11.49Q101.67 11.75 101.60 12.06Q101.53 12.38 101.51 12.45L101.51 12.45Q101.49 12.60 101.29 12.70L101.29 12.70Q100.53 13.06 100.11 13.24Q99.68 13.43 99.02 13.57Q98.36 13.72 97.68 13.72L97.68 13.72Q96.46 13.72 95.48 13.43Q94.50 13.13 93.88 12.66Q93.25 12.18 92.83 11.54Q92.41 10.91 92.25 10.25Q92.08 9.60 92.08 8.90ZM109.42 13.33L109.42 13.33Q109.42 13.13 109.63 13.06L109.63 13.06Q110.08 12.89 110.42 12.31Q110.75 11.73 112.08 8.83L112.08 8.83Q113.46 5.87 114.51 3.63L114.51 3.63Q114.60 3.42 114.68 3.36Q114.76 3.30 114.93 3.30L114.93 3.30Q115.05 3.30 115.09 3.36Q115.14 3.42 115.28 3.82L115.28 3.82Q115.36 4.06 115.42 4.23Q115.49 4.40 115.63 4.77Q115.77 5.15 115.93 5.56L115.93 5.56Q116.38 6.66 117.48 9.22Q118.58 11.77 118.68 11.98L118.68 11.98Q118.92 12.46 119.21 12.71Q119.50 12.95 119.72 12.97Q119.94 12.99 120.09 13.04Q120.23 13.09 120.23 13.26L120.23 13.26Q120.23 13.47 119.85 13.47L119.85 13.47Q119.70 13.47 119.25 13.43Q118.80 13.38 118.59 13.38L118.59 13.38Q118.33 13.38 117.91 13.41Q117.49 13.44 117.29 13.44L117.29 13.44Q116.86 13.44 116.74 13.40Q116.62 13.37 116.62 13.24L116.62 13.24Q116.62 13.15 116.73 13.08Q116.84 13.02 116.97 13.00Q117.10 12.98 117.21 12.87Q117.32 12.77 117.32 12.59L117.32 12.59Q117.32 12.28 116.97 11.33Q116.62 10.37 116.38 9.93L116.38 9.93Q116.26 9.69 115.81 9.69L115.81 9.69Q115.74 9.69 115.19 9.70Q114.65 9.72 114.11 9.72L114.11 9.72L113.37 9.72Q112.74 9.72 112.58 9.79Q112.42 9.86 112.29 10.12L112.29 10.12Q112.21 10.30 112.01 10.70Q111.82 11.10 111.75 11.26Q111.68 11.41 111.57 11.65Q111.47 11.90 111.43 12.05Q111.40 12.19 111.40 12.31L111.40 12.31Q111.40 12.63 111.56 12.80Q111.72 12.96 111.92 12.98Q112.11 13.01 112.27 13.06Q112.43 13.12 112.43 13.26L112.43 13.26Q112.43 13.36 112.39 13.40Q112.35 13.45 112.20 13.45L112.20 13.45Q112.11 13.45 111.71 13.45Q111.31 13.44 111.03 13.44L111.03 13.44Q110.73 13.44 110.34 13.47Q109.96 13.50 109.83 13.50L109.83 13.50Q109.42 13.50 109.42 13.33ZM112.94 8.71L112.94 8.71Q112.94 8.89 113.06 8.93Q113.19 8.97 113.65 8.97L113.65 8.97L114.09 8.97L115.42 8.96Q115.96 8.96 115.96 8.74L115.96 8.74Q115.96 8.55 115.28 7.01Q114.59 5.46 114.41 5.46L114.41 5.46Q114.28 5.46 113.61 7.01Q112.94 8.55 112.94 8.71ZM127.79 3.71L127.79 3.71Q127.79 3.46 128.17 3.46L128.17 3.46Q128.23 3.46 128.35 3.47Q128.48 3.49 128.55 3.49L128.55 3.49Q128.69 3.49 129.07 3.51Q129.46 3.54 129.77 3.54L129.77 3.54Q130.20 3.54 130.69 3.51Q131.18 3.49 131.24 3.49L131.24 3.49Q131.47 3.49 131.47 3.63L131.47 3.63Q131.47 3.82 131.31 3.88Q131.14 3.95 130.94 3.97Q130.73 3.99 130.54 4.28Q130.35 4.56 130.33 5.14L130.33 5.14Q130.30 5.68 130.26 8.19Q130.21 10.70 130.21 10.99L130.21 10.99L130.21 11.55Q130.21 12.56 130.55 12.66L130.55 12.66Q130.90 12.77 131.15 12.77L131.15 12.77Q132.20 12.77 132.99 12.67Q133.78 12.57 134.18 12.42Q134.58 12.28 134.85 12.10Q135.11 11.93 135.19 11.78Q135.27 11.63 135.34 11.54Q135.42 11.44 135.51 11.44L135.51 11.44Q135.67 11.44 135.67 11.68L135.67 11.68Q135.67 12.28 135.07 12.89Q134.47 13.51 134.02 13.51L134.02 13.51Q133.01 13.51 131.75 13.44Q130.48 13.37 130.17 13.37L130.17 13.37Q129.78 13.37 129.27 13.43Q128.76 13.48 128.42 13.48L128.42 13.48Q128.02 13.48 128.02 13.31L128.02 13.31Q128.02 13.22 128.09 13.15Q128.17 13.09 128.24 13.09L128.24 13.09Q128.45 13.09 128.65 12.95L128.65 12.95Q128.90 12.75 129.01 12.23Q129.12 11.70 129.12 10.21L129.12 10.21L129.12 8.47Q129.12 8.09 129.14 7.29Q129.16 6.50 129.16 6.05L129.16 6.05Q129.16 5.67 129.14 4.77L129.14 4.77Q129.12 4.37 128.79 4.14Q128.45 3.92 128.00 3.91L128.00 3.91Q127.86 3.91 127.83 3.86Q127.79 3.81 127.79 3.71ZM153.22 13.33L153.22 13.33Q153.22 13.13 153.43 13.06L153.43 13.06Q153.87 12.89 154.21 12.31Q154.55 11.73 155.88 8.83L155.88 8.83Q157.25 5.87 158.30 3.63L158.30 3.63Q158.40 3.42 158.47 3.36Q158.55 3.30 158.72 3.30L158.72 3.30Q158.84 3.30 158.89 3.36Q158.93 3.42 159.07 3.82L159.07 3.82Q159.15 4.06 159.22 4.23Q159.28 4.40 159.42 4.77Q159.56 5.15 159.73 5.56L159.73 5.56Q160.17 6.66 161.27 9.22Q162.37 11.77 162.47 11.98L162.47 11.98Q162.71 12.46 163.00 12.71Q163.30 12.95 163.51 12.97Q163.73 12.99 163.88 13.04Q164.02 13.09 164.02 13.26L164.02 13.26Q164.02 13.47 163.65 13.47L163.65 13.47Q163.49 13.47 163.04 13.43Q162.60 13.38 162.39 13.38L162.39 13.38Q162.12 13.38 161.70 13.41Q161.28 13.44 161.08 13.44L161.08 13.44Q160.65 13.44 160.53 13.40Q160.41 13.37 160.41 13.24L160.41 13.24Q160.41 13.15 160.52 13.08Q160.64 13.02 160.76 13.00Q160.89 12.98 161 12.87Q161.11 12.77 161.11 12.59L161.11 12.59Q161.11 12.28 160.76 11.33Q160.41 10.37 160.17 9.93L160.17 9.93Q160.05 9.69 159.60 9.69L159.60 9.69Q159.53 9.69 158.98 9.70Q158.44 9.72 157.91 9.72L157.91 9.72L157.16 9.72Q156.53 9.72 156.37 9.79Q156.21 9.86 156.09 10.12L156.09 10.12Q156.00 10.30 155.81 10.70Q155.61 11.10 155.54 11.26Q155.47 11.41 155.37 11.65Q155.26 11.90 155.22 12.05Q155.19 12.19 155.19 12.31L155.19 12.31Q155.19 12.63 155.35 12.80Q155.51 12.96 155.71 12.98Q155.90 13.01 156.06 13.06Q156.23 13.12 156.23 13.26L156.23 13.26Q156.23 13.36 156.18 13.40Q156.14 13.45 155.99 13.45L155.99 13.45Q155.90 13.45 155.50 13.45Q155.11 13.44 154.83 13.44L154.83 13.44Q154.52 13.44 154.13 13.47Q153.75 13.50 153.62 13.50L153.62 13.50Q153.22 13.50 153.22 13.33ZM156.73 8.71L156.73 8.71Q156.73 8.89 156.86 8.93Q156.98 8.97 157.44 8.97L157.44 8.97L157.88 8.97L159.21 8.96Q159.75 8.96 159.75 8.74L159.75 8.74Q159.75 8.55 159.07 7.01Q158.38 5.46 158.20 5.46L158.20 5.46Q158.07 5.46 157.40 7.01Q156.73 8.55 156.73 8.71ZM171.58 3.77L171.58 3.77Q171.58 3.68 171.68 3.60Q171.78 3.53 171.93 3.53L171.93 3.53Q172.02 3.53 172.21 3.54Q172.41 3.54 172.47 3.54L172.47 3.54Q172.68 3.54 172.86 3.53Q173.04 3.51 173.15 3.51L173.15 3.51Q173.28 3.51 173.45 3.59Q173.61 3.67 173.64 3.75L173.64 3.75Q173.67 3.79 173.80 3.94Q173.92 4.09 174.13 4.33Q174.34 4.56 174.51 4.79L174.51 4.79Q176.41 7.27 179.61 10.77L179.61 10.77Q179.69 10.86 179.81 10.99Q179.93 11.12 179.98 11.18Q180.03 11.24 180.08 11.30Q180.14 11.35 180.17 11.38Q180.21 11.40 180.24 11.40L180.24 11.40Q180.38 11.40 180.38 10.53L180.38 10.53L180.38 8.89Q180.38 7.95 180.37 7.31Q180.36 6.66 180.35 6.38Q180.35 6.09 180.35 6.02L180.35 6.02L180.35 5.92Q180.35 5.45 180.28 5.11Q180.22 4.77 180.14 4.59Q180.05 4.41 179.89 4.28Q179.73 4.16 179.62 4.12Q179.51 4.09 179.30 4.05Q179.09 4.00 179.00 3.98L179.00 3.98Q178.72 3.89 178.72 3.74L178.72 3.74Q178.72 3.53 178.99 3.53L178.99 3.53Q179.07 3.53 179.66 3.54Q180.25 3.54 180.32 3.54L180.32 3.54Q180.66 3.54 181.07 3.53Q181.48 3.51 181.58 3.51L181.58 3.51Q181.82 3.51 181.91 3.56Q182 3.61 182 3.75L182 3.75Q182 3.81 181.92 3.86Q181.85 3.91 181.76 3.94Q181.68 3.98 181.59 4.00L181.59 4.00L181.51 4.03Q181.05 4.28 181.05 5.61L181.05 5.61L181.05 6.15Q181.05 7.21 180.97 9.83Q180.89 12.46 180.89 13.08L180.89 13.08L180.89 13.36Q180.89 13.68 180.70 13.68L180.70 13.68Q180.57 13.68 180.47 13.58L180.47 13.58Q175.83 8.19 174.92 7.17Q174.02 6.16 173.92 6.16L173.92 6.16Q173.78 6.16 173.78 7.11L173.78 7.11Q173.78 8.44 173.73 9.97Q173.67 11.51 173.67 11.65L173.67 11.65Q173.67 12.28 173.89 12.61Q174.10 12.94 174.36 12.98Q174.61 13.02 174.82 13.07Q175.04 13.12 175.04 13.26L175.04 13.26Q175.04 13.41 174.99 13.45Q174.94 13.50 174.82 13.50L174.82 13.50Q174.72 13.50 174.38 13.48Q174.03 13.47 173.32 13.47L173.32 13.47Q173.19 13.47 172.80 13.48Q172.41 13.50 172.13 13.50L172.13 13.50Q171.82 13.50 171.82 13.27L171.82 13.27Q171.82 13.15 172.00 13.11Q172.19 13.08 172.45 12.89Q172.72 12.71 172.86 12.21L172.86 12.21Q172.94 11.89 173.07 9.60Q173.19 7.32 173.19 6.45L173.19 6.45Q173.19 5.25 172.86 4.65Q172.52 4.06 171.77 3.98L171.77 3.98Q171.58 3.96 171.58 3.77ZM189.76 3.64L189.76 3.64Q189.76 3.51 189.88 3.49Q189.99 3.47 190.47 3.47L190.47 3.47L191.69 3.47Q192.04 3.47 192.98 3.44Q193.91 3.42 194.42 3.42L194.42 3.42Q195.38 3.42 196.35 3.71Q197.32 4.00 198.13 4.56Q198.94 5.11 199.44 6.00Q199.95 6.89 199.95 7.98L199.95 7.98Q199.95 8.96 199.81 9.68Q199.68 10.40 199.37 10.93Q199.07 11.45 198.76 11.78Q198.45 12.11 197.92 12.56L197.92 12.56Q197.50 12.89 196.70 13.19Q195.90 13.48 195.06 13.48L195.06 13.48Q194.98 13.48 193.63 13.45Q192.29 13.41 191.70 13.41L191.70 13.41Q191.21 13.41 190.79 13.45Q190.37 13.48 190.30 13.48L190.30 13.48Q189.97 13.48 189.97 13.30L189.97 13.30Q189.97 13.19 190.01 13.14Q190.06 13.09 190.22 13.05Q190.39 13.01 190.46 12.98L190.46 12.98Q190.68 12.88 190.87 12.61Q191.06 12.33 191.06 12.07L191.06 12.07Q191.06 11.28 191.06 10.07Q191.07 8.85 191.07 8.27L191.07 8.27Q191.07 7.77 191.06 6.70Q191.06 5.63 191.06 4.72L191.06 4.72Q191.06 4.48 190.83 4.23Q190.60 3.99 190.32 3.98L190.32 3.98Q190.12 3.96 190.03 3.95Q189.94 3.93 189.85 3.86Q189.76 3.78 189.76 3.64ZM192.23 11.47L192.23 11.47Q192.23 11.73 192.24 11.90Q192.25 12.07 192.30 12.21Q192.35 12.35 192.37 12.40Q192.40 12.46 192.54 12.53Q192.68 12.60 192.76 12.62Q192.84 12.64 193.09 12.71Q193.34 12.78 193.51 12.82L193.51 12.82Q194.00 12.96 194.53 12.96L194.53 12.96L194.81 12.96Q195.76 12.96 196.43 12.69Q197.11 12.42 197.72 11.83L197.72 11.83Q198.76 10.84 198.76 8.61L198.76 8.61Q198.76 7.49 198.32 6.58Q197.88 5.67 197.16 5.13Q196.45 4.59 195.62 4.30Q194.80 4.02 193.96 4.02L193.96 4.02Q193.58 4.02 193.40 4.02Q193.23 4.02 193.00 4.05Q192.77 4.09 192.69 4.11Q192.61 4.13 192.50 4.25Q192.39 4.37 192.37 4.45Q192.35 4.54 192.31 4.78Q192.28 5.03 192.28 5.21Q192.28 5.39 192.28 5.80L192.28 5.80Q192.28 6.10 192.26 7.24Q192.25 8.39 192.25 8.48L192.25 8.48Q192.25 9.32 192.24 10.30Q192.23 11.28 192.23 11.47ZM217.83 3.72L217.83 3.72Q217.83 3.50 218.15 3.50L218.15 3.50Q218.19 3.50 218.30 3.49Q218.41 3.49 218.67 3.49L218.67 3.49Q218.74 3.49 219.05 3.51Q219.37 3.53 219.51 3.53L219.51 3.53Q219.81 3.53 220.70 3.51Q221.58 3.49 221.82 3.49L221.82 3.49Q223.13 3.49 224.08 4.15Q225.04 4.82 225.04 6.06L225.04 6.06Q225.04 6.75 224.78 7.29Q224.53 7.83 224.17 8.13Q223.82 8.44 223.38 8.64Q222.94 8.85 222.59 8.91Q222.25 8.97 221.98 8.97L221.98 8.97Q221.54 8.97 221.07 8.87Q220.61 8.76 220.61 8.65L220.61 8.65Q220.61 8.44 220.79 8.44L220.79 8.44Q220.86 8.44 221.08 8.50Q221.30 8.55 221.51 8.55L221.51 8.55Q221.83 8.55 222.19 8.46Q222.56 8.37 222.95 8.17Q223.34 7.97 223.59 7.55Q223.85 7.14 223.85 6.59L223.85 6.59Q223.85 5.66 223.09 4.85Q222.33 4.05 221.00 4.05L221.00 4.05Q220.57 4.05 220.42 4.30Q220.26 4.56 220.26 5.47L220.26 5.47Q220.26 8.39 220.25 8.80Q220.23 9.21 220.23 11.26L220.23 11.26Q220.23 12.49 220.81 12.87L220.81 12.87Q220.96 12.96 221.19 12.99Q221.42 13.02 221.58 13.01Q221.73 13.01 221.85 13.07Q221.97 13.13 221.97 13.30L221.97 13.30Q221.97 13.54 221.65 13.54Q221.33 13.54 220.51 13.50Q219.70 13.47 219.65 13.47L219.65 13.47Q219.51 13.47 219.09 13.50Q218.68 13.52 218.34 13.52L218.34 13.52Q217.91 13.52 217.91 13.37L217.91 13.37Q217.91 13.29 217.93 13.23Q217.95 13.17 217.97 13.14Q217.99 13.10 218.06 13.08Q218.13 13.05 218.16 13.03Q218.19 13.02 218.29 13.00Q218.40 12.98 218.44 12.96L218.44 12.96Q218.47 12.95 218.53 12.94Q218.58 12.94 218.60 12.93Q218.62 12.92 218.67 12.89Q218.72 12.85 218.75 12.79Q218.78 12.73 218.83 12.62Q218.88 12.52 218.93 12.35L218.93 12.35Q219.03 12.08 219.09 10.25Q219.14 8.41 219.14 7.41L219.14 7.41Q219.14 6.54 219.13 5.80Q219.13 5.07 219.13 5.03L219.13 5.03Q219.13 4.65 218.89 4.28Q218.65 3.91 218.11 3.91L218.11 3.91Q217.83 3.91 217.83 3.72ZM232.72 3.70L232.72 3.70Q232.72 3.47 233.13 3.47L233.13 3.47L235.45 3.47Q235.77 3.47 236.19 3.45Q236.61 3.43 236.85 3.43L236.85 3.43Q238.11 3.43 239.01 4.07Q239.90 4.70 239.90 5.78L239.90 5.78Q239.90 6.50 239.63 7.03Q239.36 7.57 239.03 7.81Q238.70 8.05 238.43 8.22Q238.15 8.40 238.15 8.46L238.15 8.46Q238.15 8.62 239.33 10.27Q240.51 11.91 240.94 12.38L240.94 12.38Q241.47 13.03 242.23 13.03L242.23 13.03Q242.42 13.03 242.42 13.20L242.42 13.20Q242.42 13.41 242.26 13.48Q242.09 13.55 241.39 13.55L241.39 13.55Q240.73 13.55 240.18 13.23L240.18 13.23Q239.48 12.82 237.82 10.09L237.82 10.09Q237.72 9.94 237.68 9.87L237.68 9.87Q237.01 8.78 236.64 8.78L236.64 8.78L236.35 8.78L235.49 8.78Q235.33 8.78 235.29 8.92Q235.26 9.06 235.26 9.77L235.26 9.77Q235.26 10.44 235.26 10.88Q235.26 11.31 235.26 11.43Q235.27 11.55 235.27 11.63Q235.27 11.70 235.27 11.75L235.27 11.75Q235.27 12.32 235.54 12.63Q235.80 12.95 236.13 13.00Q236.46 13.05 236.73 13.11Q236.99 13.17 236.99 13.31L236.99 13.31Q236.99 13.54 236.74 13.54L236.74 13.54Q236.73 13.54 235.77 13.49Q234.82 13.44 234.74 13.44L234.74 13.44Q234.33 13.44 233.77 13.47Q233.21 13.50 233.20 13.50L233.20 13.50Q232.90 13.50 232.90 13.27L232.90 13.27Q232.90 13.12 233.09 13.05Q233.27 12.99 233.49 12.96Q233.72 12.94 233.90 12.66Q234.08 12.38 234.08 11.86L234.08 11.86Q234.08 11.49 234.09 9.90Q234.09 8.30 234.09 7.45L234.09 7.45Q234.09 6.58 234.09 5.86Q234.08 5.14 234.08 5.08L234.08 5.08Q234.08 4.56 233.87 4.29Q233.66 4.02 233.40 3.98Q233.14 3.95 232.93 3.89Q232.72 3.84 232.72 3.70ZM235.26 5.54L235.26 5.94Q235.26 7.38 235.27 7.72Q235.28 8.06 235.37 8.12L235.37 8.12Q235.58 8.25 235.97 8.25L235.97 8.25L236.11 8.25L236.52 8.25Q237.71 8.25 238.22 7.70Q238.73 7.15 238.73 6.30L238.73 6.30Q238.73 5.43 238.05 4.72Q237.37 4.00 236.00 4.00L236.00 4.00Q235.48 4.00 235.37 4.28Q235.26 4.55 235.26 5.54L235.26 5.54ZM249.70 8.69L249.70 8.69Q249.70 6.34 251.12 4.84Q252.53 3.33 255.12 3.33L255.12 3.33Q256.33 3.33 257.29 3.68Q258.26 4.03 258.82 4.54Q259.38 5.05 259.76 5.71Q260.13 6.37 260.27 6.92Q260.41 7.48 260.41 7.95L260.41 7.95Q260.41 9.86 259.67 11.16Q258.93 12.47 257.72 13.07Q256.51 13.66 254.93 13.66L254.93 13.66Q253.26 13.66 252.05 12.94Q250.84 12.21 250.27 11.10Q249.70 10.00 249.70 8.69ZM250.94 7.98L250.94 7.98Q250.94 8.54 251.09 9.19Q251.24 9.84 251.59 10.54Q251.94 11.23 252.44 11.78Q252.94 12.33 253.70 12.69Q254.46 13.05 255.37 13.05L255.37 13.05Q255.85 13.05 256.37 12.90Q256.90 12.75 257.42 12.45Q257.94 12.14 258.34 11.70Q258.75 11.26 259.01 10.62Q259.27 9.98 259.27 9.24L259.27 9.24Q259.27 6.71 257.94 5.30Q256.61 3.89 254.65 3.89L254.65 3.89Q253.11 3.89 252.02 4.93Q250.94 5.96 250.94 7.98ZM268.31 3.68L268.31 3.68Q268.31 3.61 268.32 3.58Q268.34 3.56 268.41 3.53Q268.48 3.50 268.63 3.50Q268.79 3.50 269.28 3.53Q269.77 3.56 270.21 3.56L270.21 3.56Q270.49 3.56 270.72 3.54Q270.96 3.53 271.53 3.53L271.53 3.53Q271.82 3.53 271.82 3.72L271.82 3.72Q271.82 3.85 271.73 3.88Q271.63 3.91 271.48 3.92Q271.33 3.93 271.19 4.02Q271.04 4.10 270.94 4.43Q270.84 4.76 270.84 5.32L270.84 5.32L270.84 5.71Q270.84 6.37 270.84 7.37Q270.83 8.37 270.83 8.74L270.83 8.74Q270.83 9.17 270.84 9.39Q270.84 9.62 270.87 10.04Q270.90 10.47 270.95 10.72Q271.00 10.96 271.11 11.32Q271.22 11.68 271.38 11.89Q271.54 12.10 271.79 12.35Q272.03 12.60 272.36 12.73Q272.68 12.87 273.11 12.96Q273.55 13.05 274.08 13.05L274.08 13.05Q274.53 13.05 274.78 13.03Q275.03 13.02 275.47 12.94Q275.91 12.87 276.17 12.72Q276.43 12.57 276.76 12.27Q277.09 11.97 277.27 11.54Q277.45 11.10 277.58 10.43Q277.70 9.76 277.70 8.90L277.70 8.90Q277.70 7.49 277.70 6.75Q277.69 6.01 277.69 5.94L277.69 5.94Q277.69 5.45 277.67 5.17Q277.65 4.89 277.53 4.55Q277.41 4.21 277.19 4.06L277.19 4.06Q277.05 3.96 276.82 3.93Q276.60 3.89 276.46 3.87Q276.32 3.85 276.32 3.75L276.32 3.75Q276.32 3.53 276.60 3.53L276.60 3.53Q276.68 3.53 277.14 3.54Q277.61 3.56 277.68 3.56L277.68 3.56Q278.01 3.56 278.39 3.54Q278.77 3.51 278.87 3.51L278.87 3.51Q279.16 3.51 279.16 3.70L279.16 3.70Q279.16 3.81 278.86 3.98Q278.56 4.16 278.49 4.30L278.49 4.30Q278.33 4.59 278.33 5.22L278.33 5.22Q278.33 5.32 278.34 5.62Q278.35 5.92 278.35 6.16L278.35 6.16Q278.35 8.85 278.12 10.28Q277.90 11.70 277.44 12.36Q276.99 13.01 276.08 13.40L276.08 13.40Q275.34 13.71 274.08 13.71L274.08 13.71Q271.74 13.71 270.76 12.81L270.76 12.81Q269.99 12.10 269.81 11.09Q269.63 10.09 269.63 7.64L269.63 7.64L269.63 7.41Q269.63 6.86 269.64 6.20Q269.65 5.54 269.65 5.39L269.65 5.39Q269.65 4.62 269.47 4.33Q269.29 4.05 268.62 3.95L268.62 3.95Q268.31 3.91 268.31 3.68ZM286.72 3.64L286.72 3.64Q286.72 3.51 286.84 3.49Q286.96 3.47 287.43 3.47L287.43 3.47L288.65 3.47Q289.00 3.47 289.94 3.44Q290.88 3.42 291.38 3.42L291.38 3.42Q292.35 3.42 293.31 3.71Q294.28 4.00 295.09 4.56Q295.90 5.11 296.41 6.00Q296.91 6.89 296.91 7.98L296.91 7.98Q296.91 8.96 296.78 9.68Q296.65 10.40 296.34 10.93Q296.03 11.45 295.72 11.78Q295.41 12.11 294.88 12.56L294.88 12.56Q294.46 12.89 293.66 13.19Q292.87 13.48 292.03 13.48L292.03 13.48Q291.94 13.48 290.60 13.45Q289.25 13.41 288.67 13.41L288.67 13.41Q288.18 13.41 287.76 13.45Q287.34 13.48 287.27 13.48L287.27 13.48Q286.93 13.48 286.93 13.30L286.93 13.30Q286.93 13.19 286.98 13.14Q287.03 13.09 287.19 13.05Q287.35 13.01 287.42 12.98L287.42 12.98Q287.64 12.88 287.83 12.61Q288.02 12.33 288.02 12.07L288.02 12.07Q288.02 11.28 288.03 10.07Q288.04 8.85 288.04 8.27L288.04 8.27Q288.04 7.77 288.03 6.70Q288.02 5.63 288.02 4.72L288.02 4.72Q288.02 4.48 287.79 4.23Q287.56 3.99 287.28 3.98L287.28 3.98Q287.08 3.96 286.99 3.95Q286.90 3.93 286.81 3.86Q286.72 3.78 286.72 3.64ZM289.20 11.47L289.20 11.47Q289.20 11.73 289.20 11.90Q289.21 12.07 289.26 12.21Q289.31 12.35 289.34 12.40Q289.37 12.46 289.51 12.53Q289.65 12.60 289.72 12.62Q289.80 12.64 290.05 12.71Q290.30 12.78 290.47 12.82L290.47 12.82Q290.96 12.96 291.49 12.96L291.49 12.96L291.77 12.96Q292.73 12.96 293.40 12.69Q294.07 12.42 294.69 11.83L294.69 11.83Q295.72 10.84 295.72 8.61L295.72 8.61Q295.72 7.49 295.28 6.58Q294.84 5.67 294.13 5.13Q293.41 4.59 292.59 4.30Q291.76 4.02 290.92 4.02L290.92 4.02Q290.54 4.02 290.37 4.02Q290.19 4.02 289.96 4.05Q289.73 4.09 289.65 4.11Q289.58 4.13 289.46 4.25Q289.35 4.37 289.33 4.45Q289.31 4.54 289.27 4.78Q289.24 5.03 289.24 5.21Q289.24 5.39 289.24 5.80L289.24 5.80Q289.24 6.10 289.23 7.24Q289.21 8.39 289.21 8.48L289.21 8.48Q289.21 9.32 289.20 10.30Q289.20 11.28 289.20 11.47ZM315.13 8.69L315.13 8.69Q315.13 6.34 316.54 4.84Q317.95 3.33 320.54 3.33L320.54 3.33Q321.75 3.33 322.71 3.68Q323.68 4.03 324.24 4.54Q324.80 5.05 325.18 5.71Q325.56 6.37 325.70 6.92Q325.84 7.48 325.84 7.95L325.84 7.95Q325.84 9.86 325.09 11.16Q324.35 12.47 323.14 13.07Q321.93 13.66 320.35 13.66L320.35 13.66Q318.68 13.66 317.47 12.94Q316.26 12.21 315.69 11.10Q315.13 10.00 315.13 8.69ZM316.36 7.98L316.36 7.98Q316.36 8.54 316.51 9.19Q316.67 9.84 317.02 10.54Q317.37 11.23 317.86 11.78Q318.36 12.33 319.12 12.69Q319.89 13.05 320.80 13.05L320.80 13.05Q321.27 13.05 321.80 12.90Q322.32 12.75 322.84 12.45Q323.36 12.14 323.76 11.70Q324.17 11.26 324.43 10.62Q324.69 9.98 324.69 9.24L324.69 9.24Q324.69 6.71 323.36 5.30Q322.03 3.89 320.07 3.89L320.07 3.89Q318.53 3.89 317.44 4.93Q316.36 5.96 316.36 7.98ZM333.73 3.68L333.73 3.68Q333.73 3.64 333.75 3.60Q333.77 3.56 333.87 3.50Q333.96 3.44 334.10 3.44L334.10 3.44L334.47 3.44Q334.81 3.44 335.56 3.49Q336.31 3.53 337.51 3.53L337.51 3.53Q338.51 3.53 339.28 3.49Q340.05 3.46 340.69 3.46L340.69 3.46Q340.93 3.46 340.93 3.79L340.93 3.79Q340.93 3.92 340.90 4.11Q340.87 4.30 340.82 4.61Q340.76 4.93 340.73 5.22L340.73 5.22Q340.70 5.50 340.52 5.50L340.52 5.50Q340.33 5.50 340.33 5.22L340.33 5.22Q340.33 4.30 339.68 4.26L339.68 4.26Q337.57 4.09 337.16 4.09L337.16 4.09Q336.53 4.09 336.39 4.24Q336.24 4.40 336.22 4.87L336.22 4.87Q336.22 4.94 336.22 4.98L336.22 4.98Q336.18 5.74 336.18 7.32L336.18 7.32Q336.18 8.01 336.43 8.02L336.43 8.02Q336.50 8.02 336.62 8.03Q336.74 8.04 336.78 8.04L336.78 8.04Q336.88 8.04 337.08 8.03Q337.27 8.02 337.39 8.02L337.39 8.02L337.82 8.02Q338.66 8.02 338.93 7.97Q339.21 7.92 339.43 7.77L339.43 7.77Q339.56 7.69 339.63 7.57Q339.70 7.46 339.72 7.31Q339.75 7.15 339.79 7.08Q339.84 7.01 339.96 7.01Q340.09 7.01 340.12 7.06Q340.14 7.10 340.14 7.24L340.14 7.24Q340.14 7.34 340.08 7.73Q340.02 8.12 340.02 8.40L340.02 8.40Q340.02 8.67 340.07 9.05Q340.12 9.44 340.12 9.55L340.12 9.55Q340.12 9.77 340.07 9.83Q340.02 9.90 339.92 9.90L339.92 9.90Q339.68 9.90 339.63 9.55L339.63 9.55Q339.63 9.52 339.61 9.42Q339.60 9.32 339.59 9.28Q339.58 9.24 339.56 9.16Q339.53 9.09 339.50 9.04Q339.47 9.00 339.43 8.95Q339.39 8.90 339.32 8.88L339.32 8.88Q339.12 8.79 338.62 8.74Q338.11 8.68 337.96 8.68L337.96 8.68L336.74 8.68Q336.17 8.68 336.17 8.95L336.17 8.95Q336.17 9.35 336.15 9.96Q336.14 10.57 336.14 10.96L336.14 10.96Q336.14 11.06 336.13 11.25Q336.13 11.44 336.13 11.52L336.13 11.52Q336.13 11.80 336.18 12.08Q336.24 12.36 336.51 12.67Q336.78 12.98 337.25 12.98L337.25 12.98Q337.67 12.98 337.67 13.23L337.67 13.23Q337.67 13.27 337.64 13.33Q337.61 13.38 337.51 13.44Q337.40 13.50 337.23 13.50L337.23 13.50Q337.01 13.50 336.53 13.44Q336.04 13.38 335.87 13.38L335.87 13.38Q335.48 13.38 335.00 13.43Q334.52 13.47 334.18 13.47L334.18 13.47Q333.90 13.47 333.90 13.31L333.90 13.31Q333.90 13.13 333.96 13.09Q334.03 13.05 334.50 12.88L334.50 12.88Q334.87 12.75 334.95 12.13Q335.03 11.51 335.05 9.60L335.05 9.60Q335.05 8.86 335.05 8.44L335.05 8.44Q335.05 8.06 335.07 7.26Q335.09 6.45 335.09 6.01L335.09 6.01L335.09 5.19Q335.09 4.27 334.43 3.96L334.43 3.96Q334.33 3.92 334.19 3.90Q334.05 3.88 333.96 3.88Q333.87 3.88 333.80 3.83Q333.73 3.78 333.73 3.68ZM358.47 3.71L358.47 3.71Q358.47 3.50 358.86 3.50L358.86 3.50Q359.00 3.50 359.51 3.53Q360.01 3.56 360.44 3.56L360.44 3.56Q360.71 3.56 360.96 3.54Q361.20 3.53 361.68 3.53L361.68 3.53Q362.05 3.53 362.05 3.72L362.05 3.72Q362.05 3.84 361.41 4.10L361.41 4.10Q360.96 4.28 360.96 5.71L360.96 5.71Q360.96 7.60 360.94 9.05Q360.92 10.50 360.92 10.89L360.92 10.89Q360.92 12.07 361.27 12.59L361.27 12.59Q361.58 13.02 361.94 13.02L361.94 13.02Q361.97 13.02 362.08 13.03Q362.19 13.03 362.22 13.03L362.22 13.03Q362.32 13.03 362.42 13.08Q362.52 13.13 362.52 13.19L362.52 13.19Q362.52 13.34 362.44 13.39Q362.36 13.44 362.17 13.44L362.17 13.44Q361.75 13.44 361.39 13.41Q361.03 13.38 360.84 13.38L360.84 13.38Q360.44 13.38 359.98 13.42Q359.52 13.45 359.30 13.45L359.30 13.45Q358.67 13.45 358.67 13.24L358.67 13.24Q358.67 13.12 358.80 13.07Q358.93 13.02 359.10 13.00Q359.27 12.98 359.45 12.82Q359.63 12.66 359.70 12.35L359.70 12.35Q359.73 12.25 359.79 10.76Q359.86 9.27 359.86 8.61L359.86 8.61L359.86 7.81Q359.86 7.63 359.86 7.12Q359.87 6.61 359.87 6.30L359.87 6.30L359.87 5.66Q359.87 5.04 359.81 4.63L359.81 4.63Q359.77 4.30 359.44 4.12Q359.11 3.93 358.76 3.92L358.76 3.92Q358.47 3.91 358.47 3.71ZM370.06 5.32L370.06 5.32Q370.06 4.76 370.20 3.88L370.20 3.88Q370.20 3.85 370.21 3.78Q370.22 3.71 370.22 3.69Q370.23 3.67 370.24 3.62Q370.24 3.57 370.26 3.55Q370.27 3.53 370.29 3.49Q370.31 3.46 370.34 3.44Q370.37 3.43 370.41 3.42Q370.45 3.40 370.51 3.39Q370.57 3.39 370.64 3.39L370.64 3.39Q370.86 3.39 371.82 3.44Q372.78 3.50 374.58 3.50L374.58 3.50Q377.66 3.50 378.90 3.43L378.90 3.43Q378.91 3.43 378.95 3.42Q378.98 3.42 378.99 3.42L378.99 3.42Q379.15 3.42 379.20 3.50Q379.26 3.58 379.26 3.65L379.26 3.65Q379.26 3.75 379.30 4.24Q379.34 4.73 379.34 4.79L379.34 4.79Q379.34 5.14 379.30 5.23Q379.26 5.32 379.12 5.32L379.12 5.32Q379.01 5.32 378.97 5.15L378.97 5.15Q378.85 4.75 378.77 4.60Q378.69 4.45 378.41 4.34Q378.13 4.23 377.55 4.23L377.55 4.23L375.73 4.23Q375.40 4.23 375.32 4.36Q375.24 4.49 375.24 5.12L375.24 5.12L375.24 5.81Q375.24 7.69 375.22 9.11Q375.20 10.54 375.20 10.93L375.20 10.93Q375.20 11.13 375.19 11.43Q375.19 11.73 375.19 11.84L375.19 11.84Q375.19 12.45 375.38 12.64L375.38 12.64Q375.56 12.81 375.79 12.90Q376.01 12.99 376.17 13.01Q376.33 13.02 376.45 13.08Q376.56 13.13 376.56 13.26L376.56 13.26Q376.56 13.41 376.49 13.45Q376.42 13.50 376.22 13.50L376.22 13.50Q376.05 13.50 375.48 13.44Q374.91 13.38 374.67 13.38L374.67 13.38Q374.50 13.38 373.99 13.43Q373.48 13.48 373.24 13.48L373.24 13.48Q372.72 13.48 372.72 13.26L372.72 13.26Q372.72 13.12 372.81 13.07Q372.89 13.02 373.14 12.98Q373.38 12.95 373.45 12.94L373.45 12.94Q373.93 12.82 373.98 12.38L373.98 12.38Q374.12 11.14 374.12 7.08L374.12 7.08L374.11 4.58Q374.11 4.31 373.95 4.25Q373.80 4.19 373.04 4.19L373.04 4.19Q372.06 4.19 371.57 4.24Q371.07 4.30 370.99 4.35Q370.90 4.40 370.79 4.54L370.79 4.54Q370.66 4.70 370.59 4.91Q370.51 5.11 370.49 5.24Q370.47 5.38 370.41 5.47Q370.34 5.56 370.22 5.56L370.22 5.56Q370.06 5.56 370.06 5.32Z"></path></g></svg>